<svg xmlns="http://www.w3.org/2000/svg" viewBox="0 0 900 600" role="img" aria-label="Abstract flag">
  <defs>
    <linearGradient id="g1" x1="0" x2="1" y1="0" y2="1">
      <stop offset="0" stop-color="#2f6fed"/>
      <stop offset="1" stop-color="#0b0d12"/>
    </linearGradient>
    <linearGradient id="g2" x1="0" x2="1">
      <stop offset="0" stop-color="#e11d48"/>
      <stop offset="1" stop-color="#7f102b"/>
    </linearGradient>
  </defs>
  <rect width="900" height="600" fill="#0b0d12"/>
  <g transform="translate(0,0)">
    <path d="M0,140 Q200,100 450,140 T900,140 L900,260 L0,260Z" fill="url(#g1)" opacity="0.8"/>
    <path d="M0,300 Q220,260 450,300 T900,300 L900,380 L0,380Z" fill="url(#g2)" opacity="0.85"/>
    <g fill="#e9edf3" opacity="0.65">
      <!-- star field -->
      <circle cx="100" cy="90" r="2"/><circle cx="150" cy="120" r="2"/>
      <circle cx="200" cy="80" r="2"/><circle cx="260" cy="110" r="2"/>
      <circle cx="320" cy="95" r="2"/><circle cx="380" cy="125" r="2"/>
      <circle cx="440" cy="85" r="2"/><circle cx="500" cy="115" r="2"/>
      <circle cx="560" cy="100" r="2"/><circle cx="620" cy="130" r="2"/>
      <circle cx="680" cy="90" r="2"/><circle cx="740" cy="120" r="2"/>
    </g>
  </g>
</svg>
